<?xml version="1.0" standalone="no"?>
<!DOCTYPE svg PUBLIC "-//W3C//DTD SVG 20010904//EN"
 "http://www.w3.org/TR/2001/REC-SVG-20010904/DTD/svg10.dtd">
<svg version="1.0" xmlns="http://www.w3.org/2000/svg"
 width="1658.000000pt" height="831.000000pt" viewBox="0 0 1658.000000 831.000000"
 preserveAspectRatio="xMidYMid meet">

<g transform="translate(0.000000,831.000000) scale(0.100000,-0.100000)"
fill="#000000" stroke="none">
<path d="M2776 5344 c-100 -18 -235 -63 -328 -110 -360 -179 -607 -507 -682
-903 -21 -108 -21 -328 -1 -444 91 -518 504 -932 1019 -1022 113 -19 318 -19
430 0 545 95 958 526 1037 1084 14 103 7 307 -15 411 -81 375 -324 693 -662
865 -106 54 -241 99 -360 120 -108 19 -331 18 -438 -1z m449 -538 c241 -78
430 -277 491 -518 24 -95 25 -267 1 -358 -29 -112 -99 -239 -177 -322 -355
-381 -961 -293 -1195 172 -59 117 -70 169 -69 330 0 131 2 153 27 225 83 247
288 433 541 491 98 22 282 13 381 -20z"/>
<path d="M10528 5344 c-255 -46 -475 -162 -664 -349 -183 -182 -301 -400 -351
-652 -26 -131 -23 -366 7 -498 113 -507 504 -886 1009 -980 108 -20 320 -19
436 1 454 78 835 409 979 849 45 138 60 237 59 400 -1 340 -120 631 -358 871
-190 192 -430 317 -685 359 -116 18 -327 18 -432 -1z m387 -523 c154 -37 272
-106 380 -223 77 -83 145 -212 171 -323 25 -108 16 -295 -20 -400 -40 -117
-98 -209 -188 -298 -189 -185 -481 -254 -733 -173 -113 36 -197 88 -291 181
-123 122 -191 259 -214 438 -50 372 215 732 591 806 80 16 219 12 304 -8z"/>
<path d="M4575 5300 c-71 -4 -138 -8 -147 -9 -17 -1 -18 -65 -18 -1196 l0
-1195 260 0 260 0 0 975 0 975 295 0 295 0 0 -975 0 -975 260 0 260 0 0 976 0
976 153 -4 c139 -3 157 -6 209 -30 76 -35 151 -107 185 -177 l28 -56 5 -840 5
-840 263 -3 263 -2 -3 847 c-3 840 -4 849 -26 928 -48 174 -152 337 -284 445
-78 63 -217 133 -323 162 -80 22 -85 23 -945 24 -476 0 -923 -2 -995 -6z"/>
<path d="M7535 5300 c-71 -4 -138 -8 -147 -9 -17 -1 -18 -65 -18 -1196 l0
-1195 260 0 260 0 2 973 3 972 360 0 360 0 67 -32 c82 -39 142 -99 181 -183
27 -55 31 -76 31 -145 -1 -168 -94 -302 -250 -355 -51 -18 -84 -20 -311 -20
-139 0 -253 -3 -252 -7 0 -5 181 -276 402 -603 l402 -595 323 -3 c177 -1 322
0 322 2 0 2 -133 198 -295 436 l-294 433 82 41 c113 56 245 186 304 302 67
128 87 216 87 369 0 139 -16 222 -68 339 -98 220 -299 390 -546 459 -71 20
-100 21 -605 23 -291 1 -588 -2 -660 -6z"/>
<path d="M12325 5300 c-66 -4 -130 -8 -142 -9 l-23 -1 0 -1195 0 -1195 260 0
260 0 0 976 0 975 343 -3 342 -3 67 -32 c82 -39 151 -106 186 -181 l27 -57 3
-837 2 -838 261 0 260 0 -3 868 -3 867 -33 95 c-96 279 -305 473 -591 553 -72
20 -101 21 -586 22 -280 1 -564 -1 -630 -5z"/>
</g>
</svg>
